<?xml version="1.0" standalone="no"?>
<!DOCTYPE svg PUBLIC "-//W3C//DTD SVG 1.1//EN" "http://www.w3.org/Graphics/SVG/1.1/DTD/svg11.dtd" >
<svg xmlns="http://www.w3.org/2000/svg">
<metadata>Generated by IcoMoon</metadata>
<defs>
<font id="vipFont" horiz-adv-x="512">
<font-face units-per-em="512" ascent="480" descent="-32" />
<missing-glyph horiz-adv-x="512" />
<glyph unicode="&#x20;" d="" horiz-adv-x="256" />
<glyph unicode="&#xe600;" d="M256 479.808c-141.28 0-255.808-114.528-255.808-255.808s114.528-255.808 255.792-255.808c141.264 0 255.824 114.528 255.824 255.808s-114.56 255.808-255.808 255.808zM257.536-1.376c-124.576 0-225.6 101.008-225.6 225.584 0 124.608 101.008 225.616 225.6 225.616s225.584-101.008 225.584-225.616c0-124.576-100.992-225.584-225.584-225.584zM339.344 277.152l-26.56 24.672-53.008-55.024-53.040 55.024-26.528-24.672 53.408-57.504-53.584-55.632 28.672-27.536 51.072 54.992 51.072-54.992 28.688 27.536-53.6 55.616 53.408 57.52z" />
<glyph unicode="&#xe601;" d="M65.984 300.336l142-136.944 234.864 252.768 68.56-61.488-296.992-322.832-213.824 209.824 65.392 58.672z" />
<glyph unicode="&#xe602;" d="M256 479.792c-141.264 0-255.792-114.528-255.792-255.808 0-141.248 114.528-255.776 255.792-255.776 141.296 0 255.824 114.528 255.824 255.776-0.016 141.28-114.544 255.808-255.824 255.808zM255.76-1.008c-124.128 0-224.752 100.624-224.752 224.784 0 124.128 100.624 224.752 224.752 224.752 124.144 0 224.768-100.624 224.768-224.752 0-124.144-100.624-224.784-224.768-224.784zM244.784 203.936l-53.856 52.608-26.608-25.040 82.976-81.44 115.248 125.28-26.624 24.736-91.136-96.144z" />
<glyph unicode="&#xe603;" d="M267.6 343.088h-12.928c-5.136 0-9.312-4.176-9.312-9.312v-140.56c0-5.12 4.176-9.312 9.312-9.312h12.928c5.168 0 9.312 4.192 9.312 9.312v140.56c0 5.152-4.144 9.312-9.312 9.312zM256 479.936c-141.36 0-255.936-114.576-255.936-255.936 0-141.344 114.576-255.936 255.936-255.936s255.936 114.592 255.936 255.936c0 141.36-114.576 255.936-255.936 255.936zM258.112 0.656c-124.528 0-225.472 100.976-225.472 225.488s100.944 225.456 225.472 225.456 225.488-100.944 225.488-225.456-100.96-225.488-225.488-225.488zM267.072 152.864h-12.4c-5.136 0-9.312-4.16-9.312-9.328v-24.288c0-5.136 4.176-9.312 9.312-9.312h12.4c5.152 0 9.328 4.176 9.328 9.312v24.288c0 5.168-4.16 9.328-9.328 9.328z" />
<glyph unicode="&#xe604;" d="M255.136 446.88c38.24 0 70.336-31.264 79.696-73.632h35.424c-4.576 59.648-54.32 106.624-115.12 106.624s-110.528-46.992-115.104-106.624h35.424c9.376 42.368 41.456 73.632 79.68 73.632zM400.416 347.808h-290.528l-36.32-346.688c0-18.224 16.272-33.008 36.336-33.008h292.224c20.064 0 36.336 14.784 36.336 33.008l-38.048 346.688zM367.904 188.656c0-5.632-1.232-11.664-3.84-18.4-0.944-2.624-2.096-5.312-3.632-8.224-0.048-0.16-0.144-0.288-0.24-0.432l-0.096-0.16c-0.192-0.4-0.368-0.784-0.56-1.152-0.656-1.216-1.36-2.592-2.304-4.032-24.88-42.688-87.504-87.776-90.192-89.872-1.936-1.536-4.288-2.288-6.624-2.288s-4.64 0.752-6.576 2.224c-3.104 2.4-76.576 55.056-95.664 100.88-0.096 0.256-0.192 0.464-0.288 0.752-3.008 7.44-4.56 14.368-4.56 20.72 0 0.32 0 0.592 0.032 0.912-0.128 0.848-0.224 1.936-0.224 3.12 0 35.824 23.072 62.464 57.616 62.464 17.008 0 38.208-17.92 49.84-30.448 11.664 12.528 35.344 30.448 52.352 30.448 34.56 0 55.104-26.64 55.104-62.464 0-1.184-0.144-2.16-0.24-2.88 0.096-0.32 0.096-0.736 0.096-1.168z" />
<glyph unicode="&#xe605;" d="M256 479.68c-141.216 0-255.696-114.464-255.696-255.68 0-141.2 114.48-255.68 255.68-255.68s255.696 114.48 255.696 255.68c0 141.216-114.496 255.68-255.68 255.68zM257.968-1.36c-124.576 0-225.584 101.008-225.584 225.6 0 124.576 101.008 225.584 225.584 225.584 124.608 0 225.6-101.008 225.6-225.584 0-124.592-101.008-225.6-225.6-225.6zM253.68 339.456c-36.768-2.352-65.472-30.864-69.52-66.24l25.872 1.664c3.856 21.344 21.696 38.208 44.32 39.664 26.624 1.696 49.552-18.48 51.28-45.12 1.152-17.792-7.664-33.712-21.488-42.96l0.080-0.064c0 0-0.24-0.112-0.608-0.304-0.672-0.432-1.28-0.928-1.968-1.328-1.152-0.48-2.24-1.056-3.36-1.568-10.576-6.176-32.512-21.52-42.48-46.656-0.784-2.128-1.584-4.256-2.192-6.448-0.16-0.576-0.368-1.12-0.528-1.712-0.752-2.944-1.152-6-1.568-9.040l32.192-0.464c0.496 2.768 1.12 5.488 2.048 8.064 1.344 5.648 5.296 13.616 16.064 22.32 0.48 0.368 1.008 0.704 1.488 1.056 2.24 1.712 4.432 3.44 7.232 5.184 19.072 11.936 29.744 27.232 34.624 35.664 5.776 11.504 8.976 24.496 8.096 38.288-2.672 41.312-38.288 72.64-79.584 70zM247.632 136.928c-9.536-0.592-16.736-8.816-16.144-18.336 0.608-9.536 8.832-16.752 18.352-16.128 9.52 0.592 16.752 8.8 16.144 18.336-0.624 9.536-8.816 16.752-18.352 16.128z" />
<glyph unicode="&#xe606;" d="M435.664 479.904h-359.376c-42.048 0-76.176-34.128-76.176-76.272v-359.264c0-42.16 34.128-76.288 76.176-76.288h359.36c42.064 0 76.224 34.128 76.224 76.288v359.28c0 42.128-34.16 76.256-76.208 76.256zM197.472 116.048v214.288l163.44-106.336-163.44-107.952z" />
<glyph unicode="&#xe607;" d="M268 267.024h-12.992c-5.152 0-9.344-4.176-9.344-9.36v-141.12c0-5.152 4.192-9.328 9.344-9.328h12.992c5.168 0 9.344 4.176 9.344 9.328v141.12c0 5.2-4.192 9.36-9.344 9.36zM256 480.016c-141.392 0-256.016-114.608-256.016-256.016s114.624-256.016 256.016-256.016c141.408 0 256.032 114.608 256.032 256.016s-114.624 256.016-256.032 256.016zM257.984-1.664c-124.768 0-225.872 101.104-225.872 225.888 0 124.736 101.104 225.872 225.872 225.872 124.736 0 225.872-101.136 225.872-225.872-0.016-124.768-101.136-225.888-225.872-225.888zM255.008 298.192h12.448c5.168 0 9.344 4.192 9.344 9.36v24.384c0 5.152-4.192 9.344-9.344 9.344h-12.448c-5.152 0-9.344-4.192-9.344-9.344v-24.384c0-5.184 4.192-9.36 9.344-9.36z" />
<glyph unicode="&#xe608;" d="M512 300.922c0-43.181-18.609-82.015-48.245-108.922h0.245l-160-160c-16-16-32-32-48-32s-32 16-48 32l-159.755 160c-29.636 26.907-48.245 65.741-48.245 108.922 0 81.229 65.849 147.078 147.078 147.078 43.181 0 82.015-18.609 108.922-48.245 26.907 29.636 65.741 48.245 108.922 48.245 81.228 0 147.078-65.849 147.078-147.078z" />
<glyph unicode="&#xe609;" d="M511.856 407.568l-72.288 72.272-183.568-183.568-183.568 183.568-72.288-72.272 183.568-183.568-183.568-183.6 72.288-72.24 183.568 183.552 183.568-183.552 72.288 72.24-183.568 183.6z" />
<glyph unicode="&#xe60a;" d="M372.144 115.616c0 16.704 13.568 30.288 30.304 30.288 16.72 0 30.32-13.584 30.32-30.288 0-16.752-13.6-30.336-30.32-30.336-16.752 0-30.304 13.584-30.304 30.336zM281.232 115.616c0 16.704 13.584 30.288 30.336 30.288 16.704 0 30.272-13.584 30.272-30.288 0-16.752-13.568-30.336-30.272-30.336-16.752 0-30.336 13.584-30.336 30.336zM190.384 115.616c0 16.704 13.568 30.288 30.256 30.288 16.784 0 30.336-13.584 30.336-30.288 0-16.752-13.552-30.336-30.336-30.336-16.688 0-30.256 13.584-30.256 30.336zM51.664 350.496h408.4v-50.16h-408.4v50.16zM0.624 367.744v-287.488c0-30.256 30.304-60.576 60.592-60.576h389.568c30.288 0 60.592 30.336 60.592 60.576v287.488c0 30.272-30.32 60.592-60.592 60.592h-389.568c-30.288 0-60.592-30.336-60.592-60.592z" />
<glyph unicode="&#xe60b;" d="M496 288h-176v176c0 8.836-7.164 16-16 16h-96c-8.836 0-16-7.164-16-16v-176h-176c-8.836 0-16-7.164-16-16v-96c0-8.836 7.164-16 16-16h176v-176c0-8.836 7.164-16 16-16h96c8.836 0 16 7.164 16 16v176h176c8.836 0 16 7.164 16 16v96c0 8.836-7.164 16-16 16z" />
<glyph unicode="&#xe60c;" d="M496.131 44.302l-121.276 103.147c-12.537 11.283-25.945 16.463-36.776 15.963 28.628 33.534 45.921 77.039 45.921 124.588 0 106.039-85.961 192-192 192s-192-85.961-192-192c0-106.039 85.961-192 192-192 47.549 0 91.054 17.293 124.588 45.922-0.5-10.831 4.68-24.239 15.963-36.776l103.147-121.276c17.661-19.623 46.511-21.277 64.11-3.678s15.946 46.449-3.677 64.11zM192 160c-70.692 0-128 57.308-128 128s57.308 128 128 128 128-57.308 128-128-57.307-128-128-128z" />
<glyph unicode="&#xe60d;" d="M512 300.922c0 81.229-65.85 147.078-147.078 147.078-43.181 0-82.015-18.609-108.922-48.245-26.907 29.636-65.741 48.245-108.922 48.245-81.229 0-147.078-65.849-147.078-147.078 0-43.181 18.609-82.015 48.245-108.922h-0.245l160-160c16-16 32-32 48-32s32 16 48 32l159.755 160c29.636 26.907 48.245 65.741 48.245 108.922zM420.734 239.384l-161.989-162.129c-0.839-0.839-1.766-1.766-2.745-2.74-0.98 0.975-1.907 1.901-2.745 2.74l-161.989 162.128c-17.583 15.964-27.266 37.819-27.266 61.539 0 45.809 37.269 83.078 83.078 83.078 23.72 0 45.575-9.683 61.538-27.266l47.384-52.19 47.384 52.189c15.964 17.584 37.818 27.267 61.538 27.267 45.809 0 83.078-37.269 83.078-83.078 0-23.72-9.684-45.575-27.266-61.538z" />
<glyph unicode="&#xe60e;" d="M0 272v-96c0-8.836 7.164-16 16-16h480c8.836 0 16 7.164 16 16v96c0 8.836-7.164 16-16 16h-480c-8.836 0-16-7.164-16-16z" />
<glyph unicode="&#xe60f;" d="M368 480h-224c-26.4 0-48-21.6-48-48v-416c0-26.4 21.6-48 48-48h224c26.4 0 48 21.6 48 48v416c0 26.4-21.6 48-48 48zM192 456h128v-16h-128v16zM256 0c-17.673 0-32 14.327-32 32s14.327 32 32 32 32-14.327 32-32-14.327-32-32-32zM384 96h-256v320h256v-320z" />
<glyph unicode="&#xe610;" d="M395.749 207.954c-0.647 64.841 52.879 95.938 55.271 97.483-30.076 44.010-76.925 50.039-93.621 50.736-39.871 4.037-77.798-23.474-98.033-23.474-20.184 0-51.409 22.877-84.476 22.276-43.458-0.646-83.529-25.269-105.906-64.19-45.152-78.349-11.563-194.42 32.445-257.963 21.504-31.102 47.146-66.038 80.813-64.79 32.421 1.294 44.681 20.979 83.878 20.979s50.214-20.979 84.525-20.335c34.887 0.648 56.991 31.699 78.346 62.898 24.695 36.084 34.863 71.019 35.462 72.813-0.774 0.353-68.030 26.118-68.704 103.567zM331.281 398.239c17.869 21.679 29.93 51.756 26.64 81.761-25.739-1.048-56.939-17.145-75.405-38.775-16.571-19.188-31.074-49.813-27.187-79.218 28.733-2.242 58.064 14.602 75.952 36.232z" />
<glyph unicode="&#xe611;" d="M432 320c-17.6 0-32-14.4-32-32v-128c0-17.6 14.4-32 32-32s32 14.4 32 32v128c0 17.6-14.4 32-32 32zM48 320c-17.6 0-32-14.4-32-32v-128c0-17.6 14.4-32 32-32s32 14.4 32 32v128c0 17.6-14.401 32-32 32zM96 112c0-26.51 21.49-48 48-48h16v-64c0-17.6 14.4-32 32-32s32 14.4 32 32v64h32v-64c0-17.6 14.401-32 32-32s32 14.4 32 32v64h16c26.51 0 48 21.49 48 48v176h-288v-176zM299.299 435.253l20.252 38.903c1.016 1.951 0.25 4.379-1.701 5.395s-4.379 0.25-5.395-1.701l-20.559-39.493c-16.099 6.224-33.597 9.643-51.896 9.643-18.298 0-35.796-3.419-51.898-9.643l-20.558 39.492c-1.016 1.951-3.443 2.717-5.395 1.701s-2.717-3.443-1.701-5.395l20.25-38.904c-45.315-20.509-78.12-63.792-83.81-115.252h286.22c-5.688 51.462-38.493 94.744-83.809 115.254zM176 344.8c-12.813 0-23.2 10.387-23.2 23.2s10.387 23.2 23.2 23.2 23.2-10.387 23.2-23.2c-0.001-12.813-10.387-23.2-23.2-23.2zM304 344.8c-12.813 0-23.201 10.387-23.201 23.2s10.389 23.2 23.201 23.2 23.199-10.387 23.199-23.2c0-12.813-10.386-23.2-23.199-23.2z" />
<glyph unicode="&#xe612;" d="M480 256c-17.688 0-32-14.328-32-32v-192h-384v192c0 17.672-14.312 32-32 32s-32-14.328-32-32v-224c0-17.672 14.312-32 32-32h448c17.688 0 32 14.328 32 32v224c0 17.672-14.312 32-32 32zM224 160c0-17.672 14.312-32 32-32s32 14.328 32 32v192h96l-128 128-128-128h96v-192z" />
<glyph unicode="&#xe613;" d="M317.414 142.899c6.861-6.938 6.861-18.151 0-25.063-6.861-6.938-17.945-6.938-24.807 0l-98.048 100.019c-6.861 6.938-6.861 18.151 0 25.063l98.048 100.045c6.861 6.938 17.945 6.938 24.807 0s6.861-18.125 0-25.063l-80.384-87.501 80.384-87.501z" />
<glyph unicode="&#xe614;" d="M194.585 142.899c-6.861-6.938-6.861-18.151 0-25.063 6.835-6.938 17.946-6.938 24.806 0l98.048 100.019c6.861 6.938 6.861 18.151 0 25.063l-98.048 100.045c-6.861 6.938-17.946 6.938-24.806 0s-6.861-18.125-0.025-25.037l80.409-87.527-80.384-87.501z" />
</font>
</defs>
</svg>
