<?xml version="1.0" encoding="utf-8"?>
<!-- Generated by IcoMoon.io -->
<!DOCTYPE svg PUBLIC "-//W3C//DTD SVG 1.1//EN" "http://www.w3.org/Graphics/SVG/1.1/DTD/svg11.dtd">
<svg version="1.1" xmlns="http://www.w3.org/2000/svg" xmlns:xlink="http://www.w3.org/1999/xlink" width="32" height="32" viewBox="0 0 32 32">
<g>
</g>
	<path d="M23.259 22.774c0-1.044 0.848-1.893 1.894-1.893s1.895 0.849 1.895 1.893c0 1.047-0.85 1.896-1.895 1.896-1.047 0-1.894-0.849-1.894-1.896zM17.577 22.774c0-1.044 0.849-1.893 1.896-1.893 1.044 0 1.892 0.849 1.892 1.893 0 1.047-0.848 1.896-1.892 1.896-1.047 0-1.896-0.849-1.896-1.896zM11.899 22.774c0-1.044 0.848-1.893 1.891-1.893 1.049 0 1.896 0.849 1.896 1.893 0 1.047-0.847 1.896-1.896 1.896-1.043 0-1.891-0.849-1.891-1.896zM3.229 8.094h25.525v3.135h-25.525v-3.135zM0.039 7.016v17.968c0 1.891 1.894 3.786 3.787 3.786h24.348c1.893 0 3.787-1.896 3.787-3.786v-17.968c0-1.892-1.895-3.787-3.787-3.787h-24.348c-1.893 0-3.787 1.896-3.787 3.787z" fill="#000000"></path>
</svg>
