<?xml version="1.0" encoding="utf-8"?>
<!-- Generated by IcoMoon.io -->
<!DOCTYPE svg PUBLIC "-//W3C//DTD SVG 1.1//EN" "http://www.w3.org/Graphics/SVG/1.1/DTD/svg11.dtd">
<svg version="1.1" xmlns="http://www.w3.org/2000/svg" xmlns:xlink="http://www.w3.org/1999/xlink" width="32" height="32" viewBox="0 0 32 32">
<g>
</g>
	<path d="M16.75 13.311h-0.812c-0.322 0-0.584 0.261-0.584 0.585v8.82c0 0.322 0.262 0.583 0.584 0.583h0.812c0.323 0 0.584-0.261 0.584-0.583v-8.82c0-0.325-0.262-0.585-0.584-0.585zM16-0.001c-8.837 0-16.001 7.163-16.001 16.001s7.164 16.001 16.001 16.001c8.838 0 16.002-7.163 16.002-16.001s-7.164-16.001-16.002-16.001zM16.124 30.104c-7.798 0-14.117-6.319-14.117-14.118 0-7.796 6.319-14.117 14.117-14.117 7.796 0 14.117 6.321 14.117 14.117-0.001 7.798-6.321 14.118-14.117 14.118zM15.938 11.363h0.778c0.323 0 0.584-0.262 0.584-0.585v-1.524c0-0.322-0.262-0.584-0.584-0.584h-0.778c-0.322 0-0.584 0.262-0.584 0.584v1.524c0 0.324 0.262 0.585 0.584 0.585z" fill="#000000"></path>
</svg>
