<?xml version="1.0" encoding="utf-8"?>
<!-- Generated by IcoMoon.io -->
<!DOCTYPE svg PUBLIC "-//W3C//DTD SVG 1.1//EN" "http://www.w3.org/Graphics/SVG/1.1/DTD/svg11.dtd">
<svg version="1.1" xmlns="http://www.w3.org/2000/svg" xmlns:xlink="http://www.w3.org/1999/xlink" width="32" height="32" viewBox="0 0 32 32">
<g>
</g>
	<path d="M16 0.020c-8.826 0-15.981 7.154-15.981 15.98 0 8.825 7.155 15.98 15.98 15.98s15.981-7.155 15.981-15.98c0-8.826-7.156-15.98-15.98-15.98zM16.123 30.085c-7.786 0-14.099-6.313-14.099-14.1 0-7.786 6.313-14.099 14.099-14.099 7.788 0 14.1 6.313 14.1 14.099 0 7.787-6.313 14.1-14.1 14.1zM15.855 8.784c-2.298 0.147-4.092 1.929-4.345 4.14l1.617-0.104c0.241-1.334 1.356-2.388 2.77-2.479 1.664-0.106 3.097 1.155 3.205 2.82 0.072 1.112-0.479 2.107-1.343 2.685l0.005 0.004c0 0-0.015 0.007-0.038 0.019-0.042 0.027-0.080 0.058-0.123 0.083-0.072 0.030-0.14 0.066-0.21 0.098-0.661 0.386-2.032 1.345-2.655 2.916-0.049 0.133-0.099 0.266-0.137 0.403-0.010 0.036-0.023 0.070-0.033 0.107-0.047 0.184-0.072 0.375-0.098 0.565l2.012 0.029c0.031-0.173 0.070-0.343 0.128-0.504 0.084-0.353 0.331-0.851 1.004-1.395 0.030-0.023 0.063-0.044 0.093-0.066 0.14-0.107 0.277-0.215 0.452-0.324 1.192-0.746 1.859-1.702 2.164-2.229 0.361-0.719 0.561-1.531 0.506-2.393-0.167-2.582-2.393-4.54-4.974-4.375zM15.477 21.442c-0.596 0.037-1.046 0.551-1.009 1.146 0.038 0.596 0.552 1.047 1.147 1.008 0.595-0.037 1.047-0.55 1.009-1.146-0.039-0.596-0.551-1.047-1.147-1.008z" fill="#000000"></path>
</svg>
