<?xml version="1.0" encoding="utf-8"?>
<!-- Generated by IcoMoon.io -->
<!DOCTYPE svg PUBLIC "-//W3C//DTD SVG 1.1//EN" "http://www.w3.org/Graphics/SVG/1.1/DTD/svg11.dtd">
<svg version="1.1" xmlns="http://www.w3.org/2000/svg" xmlns:xlink="http://www.w3.org/1999/xlink" width="32" height="32" viewBox="0 0 32 32">
<g>
</g>
	<path d="M16.725 8.557h-0.808c-0.321 0-0.582 0.261-0.582 0.582v8.785c0 0.32 0.261 0.582 0.582 0.582h0.808c0.323 0 0.582-0.262 0.582-0.582v-8.785c0-0.322-0.259-0.582-0.582-0.582zM16 0.004c-8.835 0-15.996 7.161-15.996 15.996 0 8.834 7.161 15.996 15.996 15.996s15.996-7.162 15.996-15.996c0-8.835-7.161-15.996-15.996-15.996zM16.132 29.959c-7.783 0-14.092-6.311-14.092-14.093s6.309-14.091 14.092-14.091 14.093 6.309 14.093 14.091-6.31 14.093-14.093 14.093zM16.692 20.446h-0.775c-0.321 0-0.582 0.26-0.582 0.583v1.518c0 0.321 0.261 0.582 0.582 0.582h0.775c0.322 0 0.583-0.261 0.583-0.582v-1.518c0-0.323-0.26-0.583-0.583-0.583z" fill="#000000"></path>
</svg>
