<?xml version="1.0" encoding="utf-8"?>
<!-- Generated by IcoMoon.io -->
<!DOCTYPE svg PUBLIC "-//W3C//DTD SVG 1.1//EN" "http://www.w3.org/Graphics/SVG/1.1/DTD/svg11.dtd">
<svg version="1.1" xmlns="http://www.w3.org/2000/svg" xmlns:xlink="http://www.w3.org/1999/xlink" width="32" height="32" viewBox="0 0 32 32">
<g>
</g>
	<path d="M16 0.013c-8.829 0-15.987 7.158-15.987 15.988 0 8.828 7.158 15.986 15.987 15.986 8.831 0 15.989-7.158 15.989-15.986-0.001-8.83-7.159-15.988-15.989-15.988zM15.985 30.063c-7.758 0-14.047-6.289-14.047-14.049 0-7.758 6.289-14.047 14.047-14.047s14.048 6.289 14.048 14.047c0 7.759-6.289 14.049-14.048 14.049zM15.299 17.254l-3.366-3.288-1.663 1.565 5.186 5.090 7.203-7.83-1.664-1.546-5.696 6.009z" fill="#000000"></path>
</svg>
