<?xml version="1.0" encoding="utf-8"?>
<!-- Generated by IcoMoon.io -->
<!DOCTYPE svg PUBLIC "-//W3C//DTD SVG 1.1//EN" "http://www.w3.org/Graphics/SVG/1.1/DTD/svg11.dtd">
<svg version="1.1" xmlns="http://www.w3.org/2000/svg" xmlns:xlink="http://www.w3.org/1999/xlink" width="32" height="32" viewBox="0 0 32 32">
<g>
</g>
	<path d="M16 0.012c-8.83 0-15.988 7.158-15.988 15.988s7.158 15.988 15.987 15.988c8.829 0 15.989-7.158 15.989-15.988s-7.16-15.988-15.988-15.988zM16.096 30.086c-7.786 0-14.1-6.313-14.1-14.099 0-7.788 6.313-14.101 14.1-14.101s14.099 6.313 14.099 14.101c0 7.786-6.312 14.099-14.099 14.099zM21.209 12.678l-1.66-1.542-3.313 3.439-3.315-3.439-1.658 1.542 3.338 3.594-3.349 3.477 1.792 1.721 3.192-3.437 3.192 3.437 1.793-1.721-3.35-3.476 3.338-3.595z" fill="#000000"></path>
</svg>
